<?xml version="1.0" encoding="UTF-8"?>
<svg xmlns="http://www.w3.org/2000/svg" xmlns:xlink="http://www.w3.org/1999/xlink" width="7000px" height="7456px" viewBox="0 0 7000 7451" version="1.1">
<g id="surface1">
<path style=" stroke:none;fill-rule:nonzero;fill:rgb(0%,0%,0%);fill-opacity:1;" d="M 3326.445312 2710.242188 C 3326.445312 2713.136719 3338.015625 2724.707031 3352.480469 2734.828125 C 3374.171875 2753.628906 3375.621094 2752.183594 3356.816406 2729.042969 C 3338.015625 2705.90625 3326.445312 2698.671875 3326.445312 2710.242188 Z M 3326.445312 2710.242188 "/>
<path style=" stroke:none;fill-rule:nonzero;fill:rgb(0%,0%,0%);fill-opacity:1;" d="M 5177.6875 3812.273438 C 5137.191406 3858.554688 5093.800781 3868.675781 4888.429688 3877.355469 L 4678.71875 3884.585938 L 4878.304688 3887.476562 C 5089.460938 3890.371094 5127.066406 3881.691406 5183.472656 3819.503906 C 5199.378906 3802.152344 5208.058594 3789.132812 5203.71875 3789.132812 C 5199.378906 3789.132812 5187.808594 3799.257812 5177.6875 3812.273438 Z M 5177.6875 3812.273438 "/>
<path style=" stroke:none;fill-rule:nonzero;fill:rgb(0%,0%,0%);fill-opacity:1;" d="M 4495.042969 3891.816406 C 4492.148438 3901.941406 4466.117188 3919.296875 4438.636719 3929.417969 C 4392.355469 3946.773438 4392.355469 3948.21875 4432.851562 3939.542969 C 4477.6875 3930.867188 4523.96875 3897.601562 4509.503906 3883.140625 C 4505.164062 3877.355469 4497.933594 3881.691406 4495.042969 3891.816406 Z M 4495.042969 3891.816406 "/>
<path style=" stroke:none;fill-rule:nonzero;fill:rgb(0%,0%,0%);fill-opacity:1;" d="M 4522.519531 4512.25 C 4509.503906 4528.160156 4484.917969 4541.175781 4469.007812 4541.175781 C 4453.097656 4541.175781 4440.082031 4548.40625 4440.082031 4557.085938 C 4440.082031 4565.761719 4453.097656 4568.65625 4473.347656 4562.871094 C 4509.503906 4551.300781 4565.910156 4502.128906 4554.339844 4492.003906 C 4550 4487.664062 4535.539062 4496.34375 4522.519531 4512.25 Z M 4522.519531 4512.25 "/>
<path style=" stroke:none;fill-rule:nonzero;fill:rgb(0%,0%,0%);fill-opacity:1;" d="M 3834.089844 5128.347656 C 3806.613281 5147.148438 3795.042969 5163.058594 3806.613281 5163.058594 C 3818.183594 5163.058594 3842.769531 5147.148438 3861.570312 5126.902344 C 3903.511719 5082.066406 3897.726562 5083.515625 3834.089844 5128.347656 Z M 3834.089844 5128.347656 "/>
</g>
</svg>
